<mxfile host="app.diagrams.net" agent="Mozilla/5.0 (Windows NT 10.0; Win64; x64) AppleWebKit/537.36 (KHTML, like Gecko) Chrome/127.0.0.0 Safari/537.36" version="24.7.7">
  <diagram name="Page-1" id="mjh2PDBewAVvDZ2z7GPI">
    <mxGraphModel dx="1434" dy="780" grid="1" gridSize="10" guides="1" tooltips="1" connect="1" arrows="1" fold="1" page="1" pageScale="1" pageWidth="850" pageHeight="1100" math="0" shadow="0">
      <root>
        <mxCell id="0" />
        <mxCell id="1" parent="0" />
        <mxCell id="4vRW0ZAdQ7cbUI_zj-hU-1" value="" style="rounded=0;whiteSpace=wrap;html=1;fontSize=18;labelBackgroundColor=default;textShadow=1;labelBorderColor=#ffffff;fontFamily=Times New Roman;" vertex="1" parent="1">
          <mxGeometry x="160" y="50" width="340" height="210" as="geometry" />
        </mxCell>
        <mxCell id="4vRW0ZAdQ7cbUI_zj-hU-2" value="React Frontend     " style="text;html=1;align=center;verticalAlign=middle;whiteSpace=wrap;rounded=0;fontSize=18;labelBackgroundColor=default;textShadow=1;labelBorderColor=#ffffff;fontFamily=Times New Roman;" vertex="1" parent="1">
          <mxGeometry x="270" y="130" width="140" height="30" as="geometry" />
        </mxCell>
        <mxCell id="4vRW0ZAdQ7cbUI_zj-hU-3" value="ChartDisplay Component" style="rounded=0;whiteSpace=wrap;html=1;fontSize=18;labelBackgroundColor=default;textShadow=1;labelBorderColor=#ffffff;fontFamily=Times New Roman;" vertex="1" parent="1">
          <mxGeometry x="350" y="180" width="120" height="60" as="geometry" />
        </mxCell>
        <mxCell id="4vRW0ZAdQ7cbUI_zj-hU-4" value="FileUpload Component&amp;nbsp;" style="rounded=0;whiteSpace=wrap;html=1;fontSize=18;labelBackgroundColor=default;textShadow=1;labelBorderColor=#ffffff;fontFamily=Times New Roman;" vertex="1" parent="1">
          <mxGeometry x="200" y="180" width="120" height="60" as="geometry" />
        </mxCell>
        <mxCell id="4vRW0ZAdQ7cbUI_zj-hU-5" value="User Interface" style="rounded=0;whiteSpace=wrap;html=1;fontSize=18;labelBackgroundColor=default;textShadow=1;labelBorderColor=#ffffff;fontFamily=Times New Roman;" vertex="1" parent="1">
          <mxGeometry x="160" y="50" width="340" height="50" as="geometry" />
        </mxCell>
        <mxCell id="4vRW0ZAdQ7cbUI_zj-hU-6" value="" style="rounded=0;whiteSpace=wrap;html=1;fontSize=18;labelBackgroundColor=default;textShadow=1;labelBorderColor=#ffffff;fontFamily=Times New Roman;" vertex="1" parent="1">
          <mxGeometry x="160" y="320" width="340" height="160" as="geometry" />
        </mxCell>
        <mxCell id="4vRW0ZAdQ7cbUI_zj-hU-8" value="Data Aggregation Component" style="rounded=0;whiteSpace=wrap;html=1;fontSize=18;labelBackgroundColor=default;textShadow=1;labelBorderColor=#ffffff;fontFamily=Times New Roman;" vertex="1" parent="1">
          <mxGeometry x="350" y="380" width="120" height="80" as="geometry" />
        </mxCell>
        <mxCell id="4vRW0ZAdQ7cbUI_zj-hU-9" value="File Upload Endpoint" style="rounded=0;whiteSpace=wrap;html=1;fontSize=18;labelBackgroundColor=default;textShadow=1;labelBorderColor=#ffffff;fontFamily=Times New Roman;" vertex="1" parent="1">
          <mxGeometry x="200" y="400" width="120" height="60" as="geometry" />
        </mxCell>
        <mxCell id="4vRW0ZAdQ7cbUI_zj-hU-10" value="    Flask Backend  " style="rounded=0;whiteSpace=wrap;html=1;fontSize=18;labelBackgroundColor=default;textShadow=1;labelBorderColor=#ffffff;fontFamily=Times New Roman;" vertex="1" parent="1">
          <mxGeometry x="160" y="320" width="340" height="40" as="geometry" />
        </mxCell>
        <mxCell id="4vRW0ZAdQ7cbUI_zj-hU-11" value="" style="rounded=0;whiteSpace=wrap;html=1;fontSize=18;labelBackgroundColor=default;textShadow=1;labelBorderColor=#ffffff;fontFamily=Times New Roman;" vertex="1" parent="1">
          <mxGeometry x="590" y="230" width="340" height="180" as="geometry" />
        </mxCell>
        <mxCell id="4vRW0ZAdQ7cbUI_zj-hU-13" value="Chart.js/react-chartjs-2" style="rounded=0;whiteSpace=wrap;html=1;fontSize=18;labelBackgroundColor=default;textShadow=1;labelBorderColor=#ffffff;fontFamily=Times New Roman;" vertex="1" parent="1">
          <mxGeometry x="795" y="330" width="120" height="60" as="geometry" />
        </mxCell>
        <mxCell id="4vRW0ZAdQ7cbUI_zj-hU-14" value="Pandas" style="rounded=0;whiteSpace=wrap;html=1;fontSize=18;labelBackgroundColor=default;textShadow=1;labelBorderColor=#ffffff;fontFamily=Times New Roman;" vertex="1" parent="1">
          <mxGeometry x="610" y="330" width="120" height="60" as="geometry" />
        </mxCell>
        <mxCell id="4vRW0ZAdQ7cbUI_zj-hU-15" value=" External Libraries" style="rounded=0;whiteSpace=wrap;html=1;fontSize=18;labelBackgroundColor=default;textShadow=1;labelBorderColor=#ffffff;fontFamily=Times New Roman;" vertex="1" parent="1">
          <mxGeometry x="590" y="230" width="340" height="50" as="geometry" />
        </mxCell>
        <mxCell id="4vRW0ZAdQ7cbUI_zj-hU-16" value="" style="endArrow=classic;html=1;rounded=0;fontSize=18;labelBackgroundColor=default;textShadow=1;labelBorderColor=#ffffff;fontFamily=Times New Roman;entryX=1;entryY=0.5;entryDx=0;entryDy=0;exitX=-0.009;exitY=0.589;exitDx=0;exitDy=0;exitPerimeter=0;" edge="1" parent="1" source="4vRW0ZAdQ7cbUI_zj-hU-11" target="4vRW0ZAdQ7cbUI_zj-hU-6">
          <mxGeometry width="50" height="50" relative="1" as="geometry">
            <mxPoint x="580" y="340" as="sourcePoint" />
            <mxPoint x="339.5" y="480" as="targetPoint" />
          </mxGeometry>
        </mxCell>
        <mxCell id="4vRW0ZAdQ7cbUI_zj-hU-18" value="" style="endArrow=classic;html=1;rounded=0;entryX=0.703;entryY=0.017;entryDx=0;entryDy=0;entryPerimeter=0;fontSize=18;labelBackgroundColor=default;textShadow=1;labelBorderColor=#ffffff;fontFamily=Times New Roman;" edge="1" parent="1">
          <mxGeometry width="50" height="50" relative="1" as="geometry">
            <mxPoint x="362.8699999999999" y="320.68000000000006" as="sourcePoint" />
            <mxPoint x="363" y="263" as="targetPoint" />
          </mxGeometry>
        </mxCell>
        <mxCell id="4vRW0ZAdQ7cbUI_zj-hU-20" value="" style="endArrow=classic;html=1;rounded=0;entryX=0.703;entryY=0.017;entryDx=0;entryDy=0;entryPerimeter=0;fontSize=18;labelBackgroundColor=default;textShadow=1;labelBorderColor=#ffffff;fontFamily=Times New Roman;" edge="1" parent="1">
          <mxGeometry width="50" height="50" relative="1" as="geometry">
            <mxPoint x="261" y="261" as="sourcePoint" />
            <mxPoint x="261.4399999999999" y="317.68000000000006" as="targetPoint" />
          </mxGeometry>
        </mxCell>
        <mxCell id="4vRW0ZAdQ7cbUI_zj-hU-21" value="" style="endArrow=classic;html=1;rounded=0;entryX=1.006;entryY=0.543;entryDx=0;entryDy=0;exitX=0;exitY=0.5;exitDx=0;exitDy=0;entryPerimeter=0;" edge="1" parent="1" source="4vRW0ZAdQ7cbUI_zj-hU-15" target="4vRW0ZAdQ7cbUI_zj-hU-1">
          <mxGeometry width="50" height="50" relative="1" as="geometry">
            <mxPoint x="450" y="380" as="sourcePoint" />
            <mxPoint x="400" y="430" as="targetPoint" />
          </mxGeometry>
        </mxCell>
        <mxCell id="4vRW0ZAdQ7cbUI_zj-hU-23" value="Upload CSV" style="text;html=1;align=center;verticalAlign=middle;whiteSpace=wrap;rounded=0;" vertex="1" parent="1">
          <mxGeometry x="190" y="280" width="60" height="30" as="geometry" />
        </mxCell>
        <mxCell id="4vRW0ZAdQ7cbUI_zj-hU-24" value="Return JSON" style="text;html=1;align=center;verticalAlign=middle;whiteSpace=wrap;rounded=0;" vertex="1" parent="1">
          <mxGeometry x="380" y="280" width="60" height="30" as="geometry" />
        </mxCell>
      </root>
    </mxGraphModel>
  </diagram>
</mxfile>
